<svg width="24" height="24" viewBox="0 0 24 24" fill="none" xmlns="http://www.w3.org/2000/svg">
<path d="M12.0049 14.9248C12.0069 14.9248 12.009 14.9248 12.0107 14.9248L13.9961 16.9102C13.9993 16.9185 14 16.9215 14 16.9248V21H10V16.9248C10 16.921 10.0004 16.9186 10.002 16.9141L10.0029 16.9121C10.0038 16.911 10.0049 16.9092 10.0068 16.9072L11.9863 14.9268C11.9916 14.9263 11.9977 14.9248 12.0049 14.9248ZM16.9248 10H21V14H16.9248C16.9207 14 16.9184 13.999 16.9131 13.9971H16.9121L16.9043 13.9902L14.9268 12.0127C14.9264 12.0076 14.9248 12.0018 14.9248 11.9951C14.9248 11.9927 14.9247 11.9903 14.9248 11.9883L16.9072 10.0068C16.9089 10.0052 16.9101 10.0038 16.9111 10.0029C16.9186 10.0002 16.9217 10 16.9248 10ZM7.0752 10C7.07929 10 7.08245 10.0006 7.08887 10.0029L9.07422 11.9883C9.07427 11.9904 9.07521 11.9927 9.0752 11.9951C9.07516 12.0018 9.07262 12.0075 9.07227 12.0127L7.09277 13.9932C7.09091 13.995 7.08906 13.996 7.08789 13.9971C7.08304 13.9988 7.08037 14 7.0752 14H3V10H7.0752ZM14 3V7.0752C14 7.07936 13.9985 7.08225 13.9961 7.08887L13.9951 7.09082L13.9932 7.09277L12.0107 9.07422C12.0089 9.07425 12.0069 9.07521 12.0049 9.0752C11.9978 9.07516 11.9918 9.07266 11.9863 9.07227L10.002 7.08789C10.0003 7.08322 10 7.08026 10 7.0752V3H14Z" stroke="#87081D" stroke-width="2"/>
</svg>
