<svg width="24" height="24" viewBox="0 0 24 24" fill="none" xmlns="http://www.w3.org/2000/svg">
<path d="M4 18C3.45 18 2.97933 17.8043 2.588 17.413C2.19667 17.0217 2.00067 16.5507 2 16V8C2 7.45 2.196 6.97933 2.588 6.588C2.98 6.19667 3.45067 6.00067 4 6H20C20.55 6 21.021 6.196 21.413 6.588C21.805 6.98 22.0007 7.45067 22 8V16C22 16.55 21.8043 17.021 21.413 17.413C21.0217 17.805 20.5507 18.0007 20 18H4Z" fill="#87081D"/>
<path d="M9 15H7V13H5V11H7V9.00001H9V11H11V13H9V15Z" fill="white"/>
<path d="M15.563 14.563C15.271 14.8543 14.9167 15 14.5 15C14.086 15.0027 13.732 14.857 13.438 14.563C13.144 14.269 12.998 13.9147 13 13.5C13.002 13.0853 13.148 12.7313 13.438 12.438C13.728 12.1447 14.082 11.9987 14.5 12C14.918 12.0013 15.2723 12.1473 15.563 12.438C15.8537 12.7287 15.9993 13.0827 16 13.5C16.0007 13.9173 15.855 14.2717 15.563 14.563Z" fill="white"/>
<path d="M18.563 11.563C18.271 11.8543 17.9167 12 17.5 12C17.086 12.0027 16.732 11.857 16.438 11.563C16.144 11.269 15.998 10.9147 16 10.5C16.002 10.0853 16.148 9.73134 16.438 9.43801C16.728 9.14468 17.082 8.99868 17.5 9.00001C17.918 9.00134 18.2723 9.14734 18.563 9.43801C18.8537 9.72868 18.9993 10.0827 19 10.5C19.0007 10.9173 18.855 11.2717 18.563 11.563Z" fill="white"/>
</svg>
