<svg width="24" height="24" viewBox="0 0 24 24" fill="none" xmlns="http://www.w3.org/2000/svg">
<path d="M20 7C20.2472 7 20.4443 7.0684 20.6279 7.22363L20.7061 7.29492C20.8864 7.47531 20.9766 7.66391 20.9961 7.89648L21 7.99902V16C21 16.2829 20.9107 16.5001 20.7051 16.7061C20.526 16.8854 20.3382 16.9765 20.1045 16.9961L20.001 17H4C3.71707 17 3.50003 16.9112 3.29492 16.7061C3.11545 16.5266 3.02411 16.3375 3.00391 16.1025L3 15.999V8C3 7.75289 3.06786 7.5559 3.22266 7.37305L3.29492 7.2959C3.47568 7.11548 3.66471 7.02398 3.89844 7.00391L4.00098 7H20Z" stroke="#87081D" stroke-width="2"/>
<path d="M9 15H7V13H5V11H7V9.00001H9V11H11V13H9V15Z" fill="#87081D"/>
<path d="M15.563 14.563C15.271 14.8543 14.9167 15 14.5 15C14.086 15.0027 13.732 14.857 13.438 14.563C13.144 14.269 12.998 13.9147 13 13.5C13.002 13.0853 13.148 12.7313 13.438 12.438C13.728 12.1447 14.082 11.9987 14.5 12C14.918 12.0013 15.2723 12.1473 15.563 12.438C15.8537 12.7287 15.9993 13.0827 16 13.5C16.0007 13.9173 15.855 14.2717 15.563 14.563Z" fill="#87081D"/>
<path d="M18.563 11.563C18.271 11.8543 17.9167 12 17.5 12C17.086 12.0027 16.732 11.857 16.438 11.563C16.144 11.269 15.998 10.9147 16 10.5C16.002 10.0853 16.148 9.73134 16.438 9.43801C16.728 9.14468 17.082 8.99868 17.5 9.00001C17.918 9.00134 18.2723 9.14734 18.563 9.43801C18.8537 9.72868 18.9993 10.0827 19 10.5C19.0007 10.9173 18.855 11.2717 18.563 11.563Z" fill="#87081D"/>
</svg>
