<svg width="24" height="24" viewBox="0 0 24 24" fill="none" xmlns="http://www.w3.org/2000/svg">
<path d="M3 17.15V10C3 9.46667 3.196 9.01667 3.588 8.65C3.98 8.28333 4.44233 8.11667 4.975 8.15C6.29167 8.35 7.546 8.73767 8.738 9.313C9.93 9.88833 11.0173 10.634 12 11.55C12.9833 10.6333 14.071 9.88733 15.263 9.312C16.455 8.73667 17.709 8.34933 19.025 8.15C19.5583 8.11667 20.021 8.28333 20.413 8.65C20.805 9.01667 21.0007 9.46667 21 10V17.15C21 17.6833 20.825 18.1377 20.475 18.513C20.125 18.8883 19.6833 19.0923 19.15 19.125C18.0833 19.2917 17.05 19.5667 16.05 19.95C15.05 20.3333 14.1167 20.8417 13.25 21.475C13.0667 21.625 12.871 21.7373 12.663 21.812C12.455 21.8867 12.234 21.9243 12 21.925C11.766 21.9257 11.545 21.8883 11.337 21.813C11.129 21.7377 10.9333 21.625 10.75 21.475C9.88333 20.8417 8.95 20.3333 7.95 19.95C6.95 19.5667 5.91667 19.2917 4.85 19.125C4.31667 19.0917 3.875 18.8877 3.525 18.513C3.175 18.1383 3 17.684 3 17.15ZM12 9C10.9 9 9.95833 8.60833 9.175 7.825C8.39167 7.04167 8 6.1 8 5C8 3.9 8.39167 2.95833 9.175 2.175C9.95833 1.39167 10.9 1 12 1C13.1 1 14.0417 1.39167 14.825 2.175C15.6083 2.95833 16 3.9 16 5C16 6.1 15.6083 7.04167 14.825 7.825C14.0417 8.60833 13.1 9 12 9Z" fill="#87081D"/>
</svg>
