<svg width="24" height="24" viewBox="0 0 24 24" fill="none" xmlns="http://www.w3.org/2000/svg">
<path d="M19.1211 9.14746C19.3615 9.13931 19.5461 9.20853 19.7295 9.37988C19.8965 9.53613 19.9784 9.69821 19.9961 9.90625L20 9.99902V17.1504C19.9999 17.4413 19.9131 17.6488 19.7432 17.8311C19.5757 18.0105 19.3781 18.1092 19.0889 18.127L19.042 18.1299L18.9961 18.1367C17.8605 18.3142 16.7586 18.6079 15.6924 19.0166C14.6096 19.4317 13.5981 19.9826 12.6602 20.668L12.6377 20.6836L12.6172 20.7012C12.5157 20.7842 12.4185 20.8376 12.3252 20.8711C12.2309 20.9049 12.1236 20.9244 11.9971 20.9248C11.8735 20.9251 11.7693 20.9062 11.6777 20.873C11.5833 20.8388 11.4849 20.7847 11.3828 20.7012L11.3623 20.6836L11.3398 20.668L10.9844 20.417C10.1477 19.8468 9.25496 19.3798 8.30762 19.0166C7.24138 18.6079 6.13953 18.3142 5.00391 18.1367L4.95898 18.1299L4.91211 18.127L4.80762 18.1162C4.60634 18.0874 4.45259 18.0131 4.32031 17.8936L4.25586 17.8301C4.08678 17.649 4.00008 17.4423 4 17.1504V10C4 9.77749 4.06092 9.60713 4.2041 9.44824L4.27148 9.37988C4.45483 9.20853 4.63901 9.13956 4.87793 9.14746C6.07704 9.33483 7.21822 9.68994 8.30371 10.2139C9.40377 10.7449 10.4081 11.4328 11.3184 12.2812L12 12.917L12.6816 12.2812C13.5926 11.4321 14.5973 10.7439 15.6973 10.2129C16.7825 9.68909 17.923 9.33422 19.1211 9.14746ZM12 2C12.7286 2 13.3464 2.21813 13.8896 2.67285L14.1182 2.88184C14.7155 3.47913 15 4.16732 15 5C15 5.83268 14.7155 6.52087 14.1182 7.11816C13.5209 7.71546 12.8327 8 12 8C11.1673 8 10.4791 7.71546 9.88184 7.11816C9.28454 6.52087 9 5.83267 9 5C9 4.27135 9.21813 3.65358 9.67285 3.11035L9.88184 2.88184C10.4791 2.28454 11.1673 2 12 2Z" stroke="#87081D" stroke-width="2"/>
</svg>
